<svg width="150" height="33" viewBox="0 0 150 33" fill="none" xmlns="http://www.w3.org/2000/svg">
<path fill-rule="evenodd" clip-rule="evenodd" d="M29.9001 30.5081C30.498 31.546 31.5838 32.1259 32.7016 32.1259C33.2495 32.1259 33.8054 31.9859 34.3154 31.69C35.861 30.7981 36.391 28.8205 35.4991 27.2748L20.7658 1.75535C20.1879 0.755538 19.122 0.139648 17.9663 0.139648C16.8105 0.139648 15.7447 0.755538 15.1668 1.75535L0.433422 27.2748C-0.144474 28.2746 -0.144474 29.5063 0.433422 30.5062C1.01132 31.506 2.07713 32.1219 3.23292 32.1219H20.9478C22.7315 32.1219 24.1792 30.6742 24.1792 28.8905C24.1792 27.1068 22.7334 25.6591 20.9478 25.6591H8.83191L17.9663 9.8379L29.9001 30.5081ZM47.2913 30.5203C47.8892 31.5561 48.9769 32.136 50.0928 32.136C50.6407 32.136 51.1966 31.996 51.7065 31.7041C53.2522 30.8122 53.7822 28.8345 52.8882 27.2889L48.415 19.5462C53.3421 19.0763 57.2074 14.9151 57.2074 9.86795C57.2074 4.50692 52.8463 0.145702 47.4853 0.145702H34.6455C32.8619 0.145702 31.4141 1.59344 31.4141 3.37712C31.4141 5.1608 32.8599 6.60854 34.6455 6.60854H47.4853C49.2809 6.60854 50.7427 8.07027 50.7427 9.86596C50.7427 11.6616 49.2809 13.1234 47.4853 13.1234H42.8401C41.6862 13.1234 40.6185 13.7393 40.0406 14.7391C39.4626 15.7409 39.4626 16.9727 40.0406 17.9725L47.2913 30.5203Z" fill="white"/>
<path d="M141.08 18.52H144.806L149.995 31.3928H146.942L146.036 29.1666H139.824L138.944 31.3928H135.892L141.08 18.52ZM140.784 26.8146H145.084L143.028 21.3926H142.84L140.784 26.8146Z" fill="white"/>
<path d="M125.56 18.52H134.788V20.9707H131.628V28.9511H134.788V31.3928H125.56V28.9511H128.719V20.9707H125.56V18.52Z" fill="white"/>
<path d="M123.001 22.2188V22.551H119.967V22.2188C119.967 21.2583 119.141 20.6928 117.57 20.6928C116.87 20.6928 116.295 20.8095 115.856 21.0518C115.407 21.2942 115.182 21.6443 115.182 22.1111C115.182 22.7933 115.864 23.1973 116.843 23.4128C117.812 23.6372 119.06 23.7718 120.254 24.095C120.847 24.2566 121.385 24.463 121.879 24.7144C122.373 24.9657 122.768 25.3338 123.073 25.8275C123.378 26.3213 123.531 26.9227 123.531 27.6229C123.531 28.8707 123.01 29.8402 121.978 30.5314C120.945 31.2226 119.509 31.5727 117.687 31.5727C113.917 31.5727 111.816 30.1364 111.816 27.4434V26.9766H114.85V27.4972C114.85 28.763 115.864 29.2208 117.687 29.2208C119.563 29.2208 120.497 28.6911 120.497 27.6409C120.497 27.0304 119.823 26.6444 118.845 26.429C117.866 26.2135 116.619 26.0609 115.434 25.7019C114.841 25.5223 114.303 25.2979 113.809 25.0376C113.315 24.7772 112.92 24.3912 112.615 23.8975C112.301 23.4038 112.148 22.8113 112.148 22.1291C112.148 20.9621 112.624 20.0374 113.584 19.3552C114.545 18.6819 115.873 18.3408 117.57 18.3408C119.303 18.3408 120.64 18.673 121.583 19.3373C122.525 20.0105 123.001 20.971 123.001 22.2188Z" fill="white"/>
<path d="M109.446 22.2188V22.551H106.412V22.2188C106.412 21.2583 105.586 20.6928 104.015 20.6928C103.315 20.6928 102.74 20.8095 102.3 21.0518C101.852 21.2942 101.627 21.6443 101.627 22.1111C101.627 22.7933 102.309 23.1973 103.288 23.4128C104.257 23.6372 105.505 23.7718 106.699 24.095C107.292 24.2566 107.83 24.463 108.324 24.7144C108.818 24.9657 109.213 25.3338 109.518 25.8275C109.823 26.3213 109.976 26.9227 109.976 27.6229C109.976 28.8707 109.455 29.8402 108.423 30.5314C107.39 31.2226 105.954 31.5727 104.132 31.5727C100.361 31.5727 98.2609 30.1364 98.2609 27.4434V26.9766H101.295V27.4972C101.295 28.763 102.309 29.2208 104.132 29.2208C106.008 29.2208 106.942 28.6911 106.942 27.6409C106.942 27.0304 106.268 26.6444 105.29 26.429C104.311 26.2135 103.063 26.0609 101.879 25.7019C101.286 25.5223 100.747 25.2979 100.254 25.0376C99.76 24.7772 99.365 24.3912 99.0598 23.8975C98.7456 23.4038 98.593 22.8113 98.593 22.1291C98.593 20.9621 99.0688 20.0374 100.029 19.3552C100.99 18.6819 102.318 18.3408 104.015 18.3408C105.748 18.3408 107.085 18.673 108.028 19.3373C108.97 20.0105 109.446 20.971 109.446 22.2188Z" fill="white"/>
<path d="M94.311 30.3515C93.1978 31.1684 91.7436 31.5724 89.9572 31.5724C88.1708 31.5724 86.7165 31.1684 85.6124 30.3515C84.5082 29.5346 83.9517 28.3407 83.9517 26.7608V18.52H86.8512V26.5723C86.8512 27.4161 87.1474 28.0355 87.7399 28.4215C88.3234 28.8075 89.0685 29.005 89.9662 29.005C90.8549 29.005 91.6 28.8075 92.1835 28.4215C92.767 28.0355 93.0632 27.4251 93.0632 26.5723V18.52H95.9717V26.7608C95.9717 28.3407 95.4151 29.5346 94.311 30.3515Z" fill="white"/>
<path d="M75.9982 26.9583H73.3141V31.3928H70.4146V18.52H75.9264C79.5979 18.52 81.2048 19.8576 81.2048 22.6943C81.2048 23.8164 80.8457 24.8128 80.3879 25.3245C79.93 25.8362 79.4632 26.2042 79.149 26.3209L78.9067 26.3927L82.1024 31.3928H78.8349L75.9982 26.9583ZM78.1706 22.7481C78.1706 21.5542 77.4255 20.9617 75.9264 20.9707H73.3141V24.5166H75.9264C77.4434 24.5166 78.1706 23.969 78.1706 22.7481Z" fill="white"/>
<path d="M141.386 2.6762H136.996V0.135742H148.684V2.6762H144.294V13.0086H141.386V2.6762Z" fill="white"/>
<path d="M130.524 8.574H127.84V13.0086H124.94V0.135742H130.452C134.124 0.135742 135.73 1.4733 135.73 4.30999C135.73 5.43209 135.371 6.42853 134.913 6.94021C134.456 7.45189 133.989 7.81994 133.675 7.93664L133.432 8.00846L136.628 13.0086H133.36L130.524 8.574ZM132.696 4.36385C132.696 3.16992 131.951 2.57745 130.452 2.58643H127.84V6.13229H130.452C131.969 6.13229 132.696 5.5847 132.696 4.36385Z" fill="white"/>
<path d="M122.453 13.0086H111.906V0.135742H122.453V2.58643H114.805V5.2346H121.26V7.58654H114.805V10.5669H122.453V13.0086Z" fill="white"/>
<path d="M107.103 0.135742H110.155L105.685 13.0086H101.672L97.2106 0.135742H100.263L103.548 10.1001H103.809L107.103 0.135742Z" fill="white"/>
<path d="M89.7239 13.0086H84.5083V0.135742H89.7239C91.8155 0.135742 93.4493 0.701285 94.6252 1.83237C95.8012 2.97243 96.3847 4.55236 96.3847 6.57216C96.3847 8.59195 95.8012 10.1719 94.6342 11.303C93.4582 12.443 91.8245 13.0086 89.7239 13.0086ZM87.4078 10.4681H89.7239C90.8909 10.4681 91.7885 10.109 92.4169 9.39987C93.0363 8.6907 93.3505 7.74813 93.3505 6.57216C93.3505 5.39619 93.0363 4.45362 92.4169 3.74444C91.7885 3.03527 90.8909 2.6762 89.7239 2.6762H87.4078V10.4681Z" fill="white"/>
<path d="M74.131 0.135742H77.8564L83.0451 13.0086H79.9929L79.0863 10.7823H72.8743L71.9945 13.0086H68.9424L74.131 0.135742ZM73.8348 8.43037H78.1347L76.079 3.00834H75.8905L73.8348 8.43037Z" fill="white"/>
</svg>
