<svg width="118" height="32" viewBox="0 0 118 32" fill="none" xmlns="http://www.w3.org/2000/svg">
<g clip-path="url(#clip0_2_1397)">
<path d="M9.01911 25.2H21.6981C22.2875 25.4825 22.7884 25.9208 23.1464 26.4676C23.5045 27.0143 23.7061 27.6486 23.7295 28.3018C23.7529 28.9549 23.5971 29.602 23.279 30.173C22.9609 30.7439 22.4927 31.217 21.925 31.5408H1.99909C1.33334 31.2757 0.77375 30.7982 0.407253 30.1824C-0.315708 28.9342 0.112761 27.662 0.18174 27.4644L15.3586 1.42582C15.4833 1.22021 16.059 0.322144 17.1693 0.0674494C18.3234 -0.197858 19.5876 0.332755 20.3398 1.42582L35.0577 27.012C35.9252 28.3704 35.5976 30.1612 34.3785 31.0871C33.0705 32.0807 31.0993 31.8074 30.0765 30.408L17.8499 10.0324L9.01911 25.2Z" fill="white"/>
<path d="M33.8094 0.067456C32.2268 0.526437 31.2027 1.98032 31.3195 3.46339C31.411 4.6387 32.2056 5.68798 33.357 6.18145L47.6213 6.40697C49.0804 6.60595 50.2478 7.61013 50.5648 8.8982C50.9628 10.5312 49.9307 12.3843 48.0749 12.9733H41.9636C41.7991 12.9892 40.4553 13.1378 39.6992 14.3317C39.4067 14.8087 39.2519 15.3573 39.2519 15.9169C39.2519 16.4764 39.4067 17.0251 39.6992 17.5021L47.3931 30.6348C47.8984 31.2225 48.5975 31.6098 49.3637 31.7265C50.13 31.8433 50.9127 31.6818 51.5701 31.2713C52.2275 30.8608 52.7162 30.2284 52.9477 29.4887C53.1792 28.749 53.1381 27.9509 52.8319 27.2389L48.3031 19.0873C50.0341 18.8176 51.6694 18.1169 53.0587 17.0498C53.7352 16.5191 55.9293 14.7747 56.6815 11.611C57.7799 6.99462 54.831 3.45012 54.6439 3.23389C52.544 0.795723 49.8313 0.212048 48.9823 0.0634766L33.8094 0.067456Z" fill="white"/>
<path d="M63.7731 20.2256C63.7731 19.4754 63.165 18.8672 62.4148 18.8672C61.6646 18.8672 61.0564 19.4754 61.0564 20.2256V30.6415C61.0564 31.3917 61.6646 31.9999 62.4148 31.9999C63.165 31.9999 63.7731 31.3917 63.7731 30.6415V20.2256Z" fill="white"/>
<path d="M63.5775 19.3637C63.0957 18.7887 62.239 18.7131 61.6639 19.195C61.0889 19.6768 61.0133 20.5335 61.4952 21.1086L65.7755 26.2169C66.2573 26.7919 67.114 26.8675 67.6891 26.3856C68.2641 25.9038 68.3396 25.0471 67.8578 24.472L63.5775 19.3637Z" fill="white"/>
<path d="M75.7744 18.8687C74.4757 18.8687 73.2061 19.2538 72.1263 19.9753C71.0465 20.6968 70.2048 21.7223 69.7078 22.9222C69.2108 24.122 69.0808 25.4423 69.3342 26.716C69.5875 27.9898 70.2129 29.1598 71.1313 30.0781C72.0496 30.9964 73.2196 31.6218 74.4933 31.8752C75.7671 32.1285 77.0873 31.9985 78.2872 31.5015C79.487 31.0045 80.5125 30.1629 81.2341 29.0831C81.9556 28.0032 82.3407 26.7337 82.3407 25.435C82.3407 23.6935 81.6489 22.0233 80.4175 20.7919C79.186 19.5605 77.5159 18.8687 75.7744 18.8687ZM76.9987 28.8853C75.0726 29.6109 72.8745 28.3905 72.324 26.4365C71.804 24.5873 72.8759 22.4967 74.7728 21.9847C76.5384 21.5085 78.3717 22.5737 79.0018 24.2106C79.6903 25.9961 78.8413 28.1902 76.9987 28.8853Z" fill="white"/>
<path d="M83.6991 20.227C83.6487 19.5478 84.2297 18.8885 84.9925 18.8686H89.2958C89.5146 18.8593 90.995 18.8235 92.0815 20.0001C93.0671 21.072 93.01 22.3733 92.9875 22.7182C92.9065 23.7663 92.419 24.7413 91.6291 25.4349C91.7724 25.557 93.1308 26.7469 92.9875 28.604C92.9237 29.2942 92.6732 29.954 92.2628 30.5125C91.8524 31.0711 91.2977 31.5073 90.6581 31.7745C90.3024 31.9343 89.9151 32.0119 89.5252 32.0013C86.7223 32.0013 85.4846 32.0013 85.015 32.0013H84.9964C84.4459 31.9947 83.6394 31.4189 83.7031 30.6429C83.7495 30.0964 84.2125 29.6095 84.8359 29.5101H89.5902C89.8757 29.3987 90.1176 29.1982 90.2798 28.9382C90.4421 28.6783 90.516 28.3729 90.4907 28.0676C90.4653 27.7622 90.342 27.4732 90.1391 27.2436C89.9363 27.014 89.6646 26.8561 89.3647 26.7933C87.2529 26.8185 85.6836 26.8052 85.0628 26.7933C84.7959 26.8032 84.5334 26.7233 84.3173 26.5665C84.1118 26.3931 83.9746 26.1524 83.9299 25.8873C83.8805 25.6937 83.8753 25.4916 83.9146 25.2957C83.9538 25.0998 84.0366 24.9153 84.1568 24.7558C84.5746 24.2384 85.2392 24.2968 85.2883 24.3021H89.1352C89.5054 24.2727 89.8509 24.1048 90.1028 23.8321C90.3548 23.5593 90.4947 23.2016 90.4947 22.8303C90.4947 22.459 90.3548 22.1013 90.1028 21.8285C89.8509 21.5557 89.5054 21.3879 89.1352 21.3585H85.2883C84.4831 21.523 83.7535 20.942 83.6991 20.227Z" fill="white"/>
<path d="M97.9645 20.2256C97.9645 19.4754 97.3564 18.8672 96.6062 18.8672C95.856 18.8672 95.2478 19.4754 95.2478 20.2256V30.6415C95.2478 31.3917 95.856 31.9999 96.6062 31.9999C97.3564 31.9999 97.9645 31.3917 97.9645 30.6415V20.2256Z" fill="white"/>
<path d="M103.398 20.2256C103.398 19.4754 102.79 18.8672 102.04 18.8672C101.29 18.8672 100.681 19.4754 100.681 20.2256V30.6415C100.681 31.3917 101.29 31.9999 102.04 31.9999C102.79 31.9999 103.398 31.3917 103.398 30.6415V20.2256Z" fill="white"/>
<path d="M107.022 31.9999C107.772 31.9999 108.38 31.3918 108.38 30.6416C108.38 29.8914 107.772 29.2832 107.022 29.2832H102.041C101.291 29.2832 100.683 29.8914 100.683 30.6416C100.683 31.3918 101.291 31.9999 102.041 31.9999H107.022Z" fill="white"/>
<path d="M116.532 32C117.282 32 117.891 31.3918 117.891 30.6416C117.891 29.8914 117.282 29.2832 116.532 29.2832H111.551C110.801 29.2832 110.193 29.8914 110.193 30.6416C110.193 31.3918 110.801 32 111.551 32H116.532Z" fill="white"/>
<path d="M116.532 21.5854C117.282 21.5854 117.891 20.9772 117.891 20.227C117.891 19.4768 117.282 18.8687 116.532 18.8687H111.551C110.801 18.8687 110.193 19.4768 110.193 20.227C110.193 20.9772 110.801 21.5854 111.551 21.5854H116.532Z" fill="white"/>
<path d="M116.532 26.7934C117.282 26.7934 117.891 26.1852 117.891 25.435C117.891 24.6848 117.282 24.0767 116.532 24.0767H111.551C110.801 24.0767 110.193 24.6848 110.193 25.435C110.193 26.1852 110.801 26.7934 111.551 26.7934H116.532Z" fill="white"/>
</g>
<defs>
<clipPath id="clip0_2_1397">
<rect width="117.89" height="32" fill="white"/>
</clipPath>
</defs>
</svg>
