<svg width="118" height="33" viewBox="0 0 118 33" fill="none" xmlns="http://www.w3.org/2000/svg">
<path d="M4.48729 5.55091C2.61645 5.71135 1.17944 6.67396 0.433816 8.22479L0.0813408 8.97348L0.0406703 14.9228L0 20.8721L0.677837 19.8026C1.36923 18.7063 2.83336 16.8614 2.94182 16.9683C2.96893 16.995 3.03672 17.7304 3.07739 18.586C3.1994 21.3935 3.75522 23.6129 4.77198 25.3107C5.35492 26.2867 7.30708 28.2253 8.31031 28.8002C12.0655 30.9521 14.9124 31.3002 21.0672 31.4607L24.1446 31.5408V20.0566C24.1446 15.0942 24.1686 12.0663 24.1288 10.1739C24.0994 8.77479 23.8755 7.28672 22.7836 6.39277C22.5466 6.19865 22.291 6.02925 22.0297 5.89852C21.5039 5.63483 20.9225 5.49692 20.3326 5.49591L13.367 5.48407C9.04238 5.4707 5.04311 5.5108 4.48729 5.55091ZM6.72418 8.25154C7.61893 8.55901 8.40518 8.85312 8.45943 8.90662C8.60854 9.04029 7.79516 9.52157 7.23933 9.64194C6.6835 9.74887 5.93787 9.41464 5.46338 8.813C5.26002 8.57239 5.00244 8.37184 4.89399 8.37184C4.47373 8.37184 3.83656 8.90661 3.53832 9.50826C3.28073 10.0163 3.24007 10.2703 3.30785 10.9387C3.37563 11.6874 3.36208 11.7275 3.17228 11.4468C2.84692 10.9922 2.58934 10.0029 2.67068 9.58844C2.83336 8.813 4.06703 7.73014 4.82621 7.70339C4.97533 7.70339 5.82941 7.944 6.72418 8.25154ZM20.891 8.51889C20.891 9.57507 20.1454 10.6714 19.0879 11.2061L18.7083 11.3933L19.3997 12.2757C19.7929 12.7971 20.0369 13.2516 19.9962 13.372C19.8878 13.6527 19.1015 13.9869 18.5592 13.9869C18.1661 13.9869 18.0711 13.9068 17.7458 13.3185C17.3933 12.6902 16.9595 12.3692 17.1628 12.8773C17.2035 13.011 17.3391 13.4655 17.4611 13.9068C17.6102 14.495 17.8407 14.8961 18.4372 15.6046C19.1828 16.4736 20.0776 17.9175 20.0776 18.2518C20.0776 18.3454 19.9556 18.3186 19.7386 18.1849C19.2506 17.8774 17.5153 17.9844 16.7019 18.3721C16.363 18.5325 16.0919 18.6528 16.0648 18.6261C16.0512 18.6127 15.8886 18.2785 15.6852 17.8908C15.4954 17.5164 15.2649 17.1956 15.1971 17.1956C15.0751 17.1956 15.1158 18.2518 15.2649 19.0138C15.3327 19.3079 16.1868 19.7491 17.068 19.9363C17.6102 20.0432 17.6102 20.2705 17.0815 20.8721C16.4579 21.5673 15.9427 21.7812 14.926 21.7946C13.9499 21.808 13.3263 21.5406 12.8518 20.9122C12.5129 20.4711 12.3909 19.2678 12.6078 18.6528C12.6891 18.4122 12.7434 18.2116 12.7162 18.1849C12.7027 18.1582 12.4044 18.2384 12.0655 18.3454C11.2657 18.6127 10.6692 18.4657 9.55753 17.7571C8.67635 17.1956 8.06627 16.5539 7.7816 15.8854C7.68667 15.6581 7.55112 15.4576 7.48331 15.4576C7.26645 15.4576 6.92748 16.5138 6.92748 17.1688C6.92748 18.5192 8.33743 19.7892 10.154 20.0834C10.4658 20.1369 10.7234 20.2438 10.7234 20.3374C10.7234 20.6181 9.39485 21.7411 8.64922 22.0754C7.34776 22.677 6.27678 22.4764 5.34137 21.4203C4.52796 20.5112 4.14837 19.4015 4.14837 17.9978C4.16192 16.995 4.21615 16.7544 4.59574 15.9522C4.86688 15.4041 5.38203 14.7089 5.91074 14.1607C6.61569 13.4388 6.75124 13.2249 6.61569 13.0778C6.52082 12.9575 6.29034 12.9174 5.95143 12.9575C5.28714 13.0511 5.28714 12.864 5.95143 12.0216C7.60536 9.98954 9.43548 9.09379 12.2825 8.94674C14.0177 8.85312 15.3327 9.04029 16.3766 9.50826C17.0408 9.80236 17.1493 9.81574 17.7594 9.65531C18.5321 9.45476 19.5488 8.85312 20.1995 8.18467C20.4571 7.93063 20.7148 7.74351 20.7825 7.78357C20.8367 7.82369 20.891 8.15792 20.891 8.51889ZM21.0401 15.2972C21.2299 15.7784 21.0808 16.5271 20.6876 17.0084C20.5114 17.2223 20.3487 17.3694 20.3216 17.3293C20.2945 17.2892 20.0776 16.9416 19.8471 16.5672C19.4269 15.872 19.4133 15.8587 19.6844 15.7116C19.8471 15.6314 20.0504 15.364 20.1589 15.11C20.3352 14.7089 20.3893 14.6688 20.6334 14.7891C20.7825 14.8693 20.9587 15.0966 21.0401 15.2972ZM19.5353 15.257C19.3455 15.4843 18.8575 15.5244 18.8575 15.3239C18.8575 15.2437 18.9388 15.1902 19.0473 15.1902C19.1421 15.1902 19.3184 15.0966 19.4133 14.9763C19.5353 14.8292 19.6166 14.8159 19.6438 14.9094C19.6708 15.003 19.6166 15.1501 19.5353 15.257ZM20.8096 19.6823C21.2435 20.1235 21.2706 20.7652 20.8774 21.2598C20.5385 21.6877 20.3893 21.7011 20.2809 21.3C20.2402 21.1395 20.1047 20.7919 19.9827 20.5245C19.7929 20.07 19.7929 20.0031 20.0098 19.6823C20.2945 19.2545 20.3623 19.2545 20.8096 19.6823ZM18.4236 22.1957C18.8575 22.423 19.2642 23.0647 19.2642 23.5192C19.2642 24.1075 18.5999 24.6824 17.922 24.6824C17.3255 24.6824 16.6748 24.4819 16.5257 24.2412C16.3495 23.9605 16.4037 23.145 16.6341 22.824C16.8917 22.4764 17.6102 22.0085 17.9085 22.0085C18.017 22.0219 18.2474 22.0888 18.4236 22.1957ZM15.3056 24.2278C16.0241 24.4284 15.0344 24.9231 13.8821 24.9364C13.2449 24.9498 13.1365 24.776 13.5974 24.5354C14.2346 24.2011 14.7904 24.0941 15.3056 24.2278Z" fill="white"/>
<path d="M11.8893 10.4173C11.6317 10.6045 11.6317 10.6178 11.9028 10.7649C12.2417 10.9387 13.0687 10.7114 12.9874 10.4574C12.9195 10.2302 12.1875 10.2034 11.8893 10.4173Z" fill="white"/>
<path d="M15.2378 10.4575C15.1971 10.5779 15.2378 10.7249 15.3463 10.7918C15.8207 11.0859 16.607 10.7517 16.2546 10.4041C16.0105 10.1634 15.3327 10.2035 15.2378 10.4575Z" fill="white"/>
<path d="M8.75768 11.0324C8.35096 11.2062 7.98493 11.6608 8.03917 11.9415C8.10698 12.3159 8.94748 12.3292 9.40844 11.9816C10.154 11.3934 9.66599 10.6714 8.75768 11.0324Z" fill="white"/>
<path d="M14.4651 12.8507C14.2075 13.586 13.8821 14.0539 13.611 14.094C13.2449 14.1475 12.0384 13.6394 11.7266 13.3052C11.4283 12.9844 11.2657 12.9844 11.2657 13.2918C11.2657 13.8132 10.8319 14.0004 9.82864 13.9202C9.31349 13.8801 8.81191 13.8935 8.70348 13.9604C8.21539 14.2946 9.17794 15.5379 10.3032 16.0326C11.1572 16.4069 12.6349 16.5005 13.0958 16.2064C13.2856 16.0861 13.4347 15.8989 13.4347 15.7919C13.4347 15.5112 13.7466 15.5379 14.1533 15.8588C14.3431 16.0058 14.5193 16.1261 14.56 16.1261C14.6278 16.1261 14.4651 15.3909 14.3159 15.0165C14.2482 14.8561 14.2888 14.7224 14.438 14.6154C14.7226 14.4015 14.8446 13.6394 14.682 13.0512C14.5735 12.6501 14.5464 12.6234 14.4651 12.8507ZM11.2115 15.1235C11.6724 15.3508 12.2553 15.3775 12.6349 15.1903C12.7976 15.0967 12.8925 15.0967 12.8925 15.177C12.8925 15.3641 12.5264 15.6984 12.2282 15.7919C11.8757 15.8989 11.0488 15.5513 10.859 15.2037C10.6828 14.8695 10.7098 14.8695 11.2115 15.1235Z" fill="white"/>
<path d="M6.50719 14.495C6.22252 14.7356 6.20896 15.1902 6.50719 15.1902C6.77836 15.1902 7.23926 14.6955 7.15795 14.4816C7.04946 14.1875 6.90035 14.2008 6.50719 14.495Z" fill="white"/>
<path d="M35.0702 16.2979V19.8513H38.7984C40.625 19.8513 41.5383 19.292 41.5383 18.1733C41.5383 16.9231 40.6459 16.2979 38.861 16.2979H35.0702ZM38.7359 13.2875C40.6042 13.2875 41.5383 12.757 41.5383 11.6959C41.5383 10.3881 40.5833 9.73418 38.6733 9.73418H35.0702V13.2875H38.7359ZM40.0495 5.79844C44.6535 5.79844 46.9555 7.4558 46.9555 10.7706C46.9555 12.9996 45.9714 14.3198 44.0029 14.7311C45.9714 15.1423 46.9555 16.5653 46.9555 18.9999C46.9555 22.1091 44.6535 23.6637 40.0495 23.6637H28.7147L29.7781 22.3189V7.39003L28.7147 5.79844H40.0495ZM57.3946 5.78608H63.4998L72.3451 23.6637H64.8008L65.8645 22.3065L65.0514 20.4682H56.3938L55.4554 22.3065L56.5189 23.6637H49.9757L58.0077 7.13089L57.3946 5.78608ZM57.6449 17.2109H63.6877L60.6978 10.8199L57.6449 17.2109ZM77.1168 5.79844H88.4518C93.0556 5.79844 95.3575 7.59978 95.3575 11.2024C95.3575 14.147 93.9896 15.9484 91.2539 16.6064L96.1706 23.6637H88.1389L89.2526 22.3189L85.8371 17.285H83.4724V22.3189L84.586 23.6637H77.1168L78.18 22.4423V7.00752L77.1168 5.79844ZM83.4724 9.48744V13.9044H87.138C88.9978 13.9044 89.9318 13.1477 89.9406 11.6342C89.9406 10.2031 88.9855 9.48744 87.0752 9.48744H83.4724ZM116.769 5.51465V11.2518C113.849 9.97688 111.302 9.3394 109.125 9.3394C107.79 9.3394 107.102 9.70541 107.06 10.4375C107.06 11.1777 108.82 12.0496 112.34 13.0531C115.901 14.3116 117.682 16.1047 117.682 18.4324C117.682 22.1009 115.176 23.9351 110.163 23.9351C108.203 23.9351 105.855 23.4581 103.12 22.5039L101.731 23.9968V17.5935C104.575 19.3125 107.323 20.1721 109.975 20.1721C111.393 20.1721 112.102 19.7731 112.102 18.9753C112.102 18.2185 110.726 17.4412 107.973 16.6434C105.68 15.9443 103.983 15.0641 102.882 14.0031C102.031 13.0243 101.606 11.8686 101.606 10.5361C101.606 8.80063 102.577 7.44757 104.52 6.47703C105.905 5.87654 107.581 5.57634 109.55 5.57634C111.043 5.57634 112.982 5.97525 115.368 6.7731L116.769 5.51465Z" fill="white"/>
<path d="M29.3884 31.6374V27.426H31.1331C31.6374 27.426 32.036 27.5604 32.3288 27.8292C32.6216 28.0979 32.768 28.4528 32.768 28.894C32.768 29.3633 32.6054 29.7282 32.28 29.9889C31.9547 30.2456 31.5418 30.374 31.0416 30.374H30.3278V31.6374H29.3884ZM30.3278 29.5498H31.0721C31.3039 29.5498 31.4849 29.4896 31.615 29.3693C31.7492 29.249 31.8163 29.0925 31.8163 28.9C31.8163 28.6955 31.7492 28.5391 31.615 28.4307C31.4808 28.3184 31.2937 28.2623 31.0538 28.2623H30.3278V29.5498ZM34.6835 31.6374V27.426H37.9045V28.2503H35.6168V29.1046H37.63V29.9288H35.6168V30.8132H37.935V31.6374H34.6835ZM39.9905 31.6374V27.426H40.9299V29.267L42.6625 27.426H43.7972L42.0585 29.2128L43.8765 31.6374H42.7479L41.4241 29.8445L40.9299 30.3499V31.6374H39.9905ZM46.2341 27.426H49.2844V31.6374H48.3449V28.2623H47.1126V28.5812C47.1126 29.4034 47.0618 30.0411 46.9601 30.4943C46.8625 30.9475 46.7181 31.2604 46.527 31.4328C46.3358 31.6053 46.0695 31.6916 45.7278 31.6916C45.5366 31.6916 45.372 31.6735 45.2337 31.6374L45.2947 30.8733C45.3516 30.8814 45.4004 30.8854 45.4411 30.8854C45.5794 30.8854 45.6912 30.8573 45.7766 30.8011C45.8661 30.741 45.9474 30.6226 46.0206 30.4462C46.0979 30.2697 46.1528 30.007 46.1853 29.6581C46.2179 29.3051 46.2341 28.8519 46.2341 28.2984V27.426ZM51.1618 31.6374L52.9919 27.396H53.8583L55.6884 31.6374H54.7062L54.3158 30.6929H52.51L52.1196 31.6374H51.1618ZM52.8455 29.8746H53.9803L53.4129 28.509L52.8455 29.8746ZM57.5676 31.6374V27.426H58.5803L59.7027 29.2068L60.8252 27.426H61.8379V31.6374H60.9045V28.888L59.7027 30.6868H59.6787L58.4888 28.9061V31.6374H57.5676ZM64.084 31.6374V27.426H65.0233V29.0925H66.7563V27.426H67.6956V31.6374H66.7563V29.9468H65.0233V31.6374H64.084ZM69.5731 31.6374L71.4029 27.396H72.2694L74.0999 31.6374H73.1178L72.7268 30.6929H70.9215L70.5306 31.6374H69.5731ZM71.2568 29.8746H72.3916L71.8239 28.509L71.2568 29.8746ZM79.3588 27.426V31.6374H78.4189V30.2897H77.681L76.7658 31.6374H75.668L76.7112 30.1333C76.1006 29.9087 75.7959 29.4696 75.7959 28.8158C75.7959 28.3826 75.938 28.0437 76.2227 27.7991C76.5116 27.5504 76.9061 27.426 77.4063 27.426H79.3588ZM77.4673 29.4716H78.4189V28.2623H77.4855C77.2536 28.2623 77.0728 28.3144 76.9425 28.4187C76.8127 28.523 76.7476 28.6754 76.7476 28.876C76.7476 29.0564 76.8104 29.2008 76.9366 29.3091C77.0669 29.4174 77.2436 29.4716 77.4673 29.4716ZM85.5964 28.2623V31.6374H84.6565V27.426H87.64V28.2623H85.5964ZM89.5227 31.6374V27.426H91.2674C91.7717 27.426 92.1704 27.5604 92.4633 27.8292C92.7562 28.0979 92.9024 28.4528 92.9024 28.894C92.9024 29.3633 92.7398 29.7282 92.4146 29.9889C92.0893 30.2456 91.676 30.374 91.1759 30.374H90.462V31.6374H89.5227ZM90.462 29.5498H91.2064C91.4383 29.5498 91.6191 29.4896 91.7494 29.3693C91.8839 29.249 91.9508 29.0925 91.9508 28.9C91.9508 28.6955 91.8839 28.5391 91.7494 28.4307C91.615 28.3184 91.4283 28.2623 91.1882 28.2623H90.462V29.5498ZM96.6238 29.652L97.6547 27.426H98.6733L97.0324 30.6808C96.8493 31.0418 96.6461 31.3025 96.4225 31.4629C96.2029 31.6234 95.9405 31.7036 95.6352 31.7036C95.3141 31.7036 95.007 31.6213 94.7141 31.4569L95.0804 30.777C95.2348 30.8693 95.4033 30.9155 95.5865 30.9155C95.7978 30.9155 95.9769 30.8032 96.1236 30.5785L94.4153 27.426H95.4644L96.6238 29.652ZM100.518 31.6374V27.426H104.081V31.6374H103.141V28.2623H101.458V31.6374H100.518ZM106.326 31.6374V27.426H109.888V31.6374H108.949V28.2623H107.265V31.6374H106.326ZM111.767 31.6374L113.597 27.396H114.464L116.293 31.6374H115.311L114.921 30.6929H113.115L112.725 31.6374H111.767ZM113.451 29.8746H114.585L114.018 28.509L113.451 29.8746Z" fill="white"/>
</svg>
