<svg width="116" height="116" viewBox="0 0 116 116" fill="none" xmlns="http://www.w3.org/2000/svg">
<g filter="url(#filter0_f_15_15)">
<path d="M50 56L54 60L62 52M42 46.3999C42 45.233 42.4636 44.1138 43.2887 43.2887C44.1139 42.4635 45.2331 41.9999 46.4 41.9999H48.4C49.5618 41.9993 50.6762 41.5391 51.5 40.7199L52.9 39.3199C53.3089 38.9087 53.795 38.5824 54.3305 38.3598C54.8659 38.1371 55.4401 38.0225 56.02 38.0225C56.5999 38.0225 57.1741 38.1371 57.7095 38.3598C58.245 38.5824 58.7311 38.9087 59.14 39.3199L60.54 40.7199C61.364 41.5399 62.48 41.9999 63.64 41.9999H65.64C66.807 41.9999 67.9261 42.4635 68.7513 43.2887C69.5764 44.1138 70.04 45.233 70.04 46.3999V48.3999C70.04 49.5599 70.5 50.6759 71.32 51.4999L72.72 52.8999C73.1312 53.3088 73.4575 53.795 73.6802 54.3304C73.9029 54.8659 74.0175 55.4401 74.0175 56.0199C74.0175 56.5998 73.9029 57.174 73.6802 57.7095C73.4575 58.2449 73.1312 58.7311 72.72 59.1399L71.32 60.5399C70.5008 61.3638 70.0407 62.4781 70.04 63.6399V65.6399C70.04 66.8069 69.5764 67.9261 68.7513 68.7512C67.9261 69.5764 66.807 70.0399 65.64 70.0399H63.64C62.4782 70.0406 61.3638 70.5007 60.54 71.3199L59.14 72.7199C58.7311 73.1311 58.245 73.4575 57.7095 73.6801C57.1741 73.9028 56.5999 74.0174 56.02 74.0174C55.4401 74.0174 54.8659 73.9028 54.3305 73.6801C53.795 73.4575 53.3089 73.1311 52.9 72.7199L51.5 71.3199C50.6762 70.5007 49.5618 70.0406 48.4 70.0399H46.4C45.2331 70.0399 44.1139 69.5764 43.2887 68.7512C42.4636 67.9261 42 66.8069 42 65.6399V63.6399C41.9993 62.4781 41.5392 61.3638 40.72 60.5399L39.32 59.1399C38.9088 58.7311 38.5825 58.2449 38.3598 57.7095C38.1372 57.174 38.0225 56.5998 38.0225 56.0199C38.0225 55.4401 38.1372 54.8659 38.3598 54.3304C38.5825 53.795 38.9088 53.3088 39.32 52.8999L40.72 51.4999C41.5392 50.6761 41.9993 49.5617 42 48.3999V46.3999Z" stroke="#04B2D9" stroke-width="2" stroke-linecap="round" stroke-linejoin="round"/>
</g>
<path d="M50 56L54 60L62 52M42 46.3999C42 45.233 42.4636 44.1138 43.2887 43.2887C44.1139 42.4635 45.2331 41.9999 46.4 41.9999H48.4C49.5618 41.9993 50.6762 41.5391 51.5 40.7199L52.9 39.3199C53.3089 38.9087 53.795 38.5824 54.3305 38.3598C54.8659 38.1371 55.4401 38.0225 56.02 38.0225C56.5999 38.0225 57.1741 38.1371 57.7095 38.3598C58.245 38.5824 58.7311 38.9087 59.14 39.3199L60.54 40.7199C61.364 41.5399 62.48 41.9999 63.64 41.9999H65.64C66.807 41.9999 67.9261 42.4635 68.7513 43.2887C69.5764 44.1138 70.04 45.233 70.04 46.3999V48.3999C70.04 49.5599 70.5 50.6759 71.32 51.4999L72.72 52.8999C73.1312 53.3088 73.4575 53.795 73.6802 54.3304C73.9029 54.8659 74.0175 55.4401 74.0175 56.0199C74.0175 56.5998 73.9029 57.174 73.6802 57.7095C73.4575 58.2449 73.1312 58.7311 72.72 59.1399L71.32 60.5399C70.5008 61.3638 70.0407 62.4781 70.04 63.6399V65.6399C70.04 66.8069 69.5764 67.9261 68.7513 68.7512C67.9261 69.5764 66.807 70.0399 65.64 70.0399H63.64C62.4782 70.0406 61.3638 70.5007 60.54 71.3199L59.14 72.7199C58.7311 73.1311 58.245 73.4575 57.7095 73.6801C57.1741 73.9028 56.5999 74.0174 56.02 74.0174C55.4401 74.0174 54.8659 73.9028 54.3305 73.6801C53.795 73.4575 53.3089 73.1311 52.9 72.7199L51.5 71.3199C50.6762 70.5007 49.5618 70.0406 48.4 70.0399H46.4C45.2331 70.0399 44.1139 69.5764 43.2887 68.7512C42.4636 67.9261 42 66.8069 42 65.6399V63.6399C41.9993 62.4781 41.5392 61.3638 40.72 60.5399L39.32 59.1399C38.9088 58.7311 38.5825 58.2449 38.3598 57.7095C38.1372 57.174 38.0225 56.5998 38.0225 56.0199C38.0225 55.4401 38.1372 54.8659 38.3598 54.3304C38.5825 53.795 38.9088 53.3088 39.32 52.8999L40.72 51.4999C41.5392 50.6761 41.9993 49.5617 42 48.3999V46.3999Z" stroke="#04B2D9" stroke-width="2" stroke-linecap="round" stroke-linejoin="round"/>
<g filter="url(#filter1_f_15_15)">
<path d="M50 56L54 60L62 52M42 46.3999C42 45.233 42.4636 44.1138 43.2887 43.2887C44.1139 42.4635 45.2331 41.9999 46.4 41.9999H48.4C49.5618 41.9993 50.6762 41.5391 51.5 40.7199L52.9 39.3199C53.3089 38.9087 53.795 38.5824 54.3305 38.3598C54.8659 38.1371 55.4401 38.0225 56.02 38.0225C56.5999 38.0225 57.1741 38.1371 57.7095 38.3598C58.245 38.5824 58.7311 38.9087 59.14 39.3199L60.54 40.7199C61.364 41.5399 62.48 41.9999 63.64 41.9999H65.64C66.807 41.9999 67.9261 42.4635 68.7513 43.2887C69.5764 44.1138 70.04 45.233 70.04 46.3999V48.3999C70.04 49.5599 70.5 50.6759 71.32 51.4999L72.72 52.8999C73.1312 53.3088 73.4575 53.795 73.6802 54.3304C73.9029 54.8659 74.0175 55.4401 74.0175 56.0199C74.0175 56.5998 73.9029 57.174 73.6802 57.7095C73.4575 58.2449 73.1312 58.7311 72.72 59.1399L71.32 60.5399C70.5008 61.3638 70.0407 62.4781 70.04 63.6399V65.6399C70.04 66.8069 69.5764 67.9261 68.7513 68.7512C67.9261 69.5764 66.807 70.0399 65.64 70.0399H63.64C62.4782 70.0406 61.3638 70.5007 60.54 71.3199L59.14 72.7199C58.7311 73.1311 58.245 73.4575 57.7095 73.6801C57.1741 73.9028 56.5999 74.0174 56.02 74.0174C55.4401 74.0174 54.8659 73.9028 54.3305 73.6801C53.795 73.4575 53.3089 73.1311 52.9 72.7199L51.5 71.3199C50.6762 70.5007 49.5618 70.0406 48.4 70.0399H46.4C45.2331 70.0399 44.1139 69.5764 43.2887 68.7512C42.4636 67.9261 42 66.8069 42 65.6399V63.6399C41.9993 62.4781 41.5392 61.3638 40.72 60.5399L39.32 59.1399C38.9088 58.7311 38.5825 58.2449 38.3598 57.7095C38.1372 57.174 38.0225 56.5998 38.0225 56.0199C38.0225 55.4401 38.1372 54.8659 38.3598 54.3304C38.5825 53.795 38.9088 53.3088 39.32 52.8999L40.72 51.4999C41.5392 50.6761 41.9993 49.5617 42 48.3999V46.3999Z" stroke="white" stroke-width="1.5" stroke-linecap="round" stroke-linejoin="round"/>
</g>
<defs>
<filter id="filter0_f_15_15" x="-2.97748" y="-2.97754" width="117.995" height="117.995" filterUnits="userSpaceOnUse" color-interpolation-filters="sRGB">
<feFlood flood-opacity="0" result="BackgroundImageFix"/>
<feBlend mode="normal" in="SourceGraphic" in2="BackgroundImageFix" result="shape"/>
<feGaussianBlur stdDeviation="20" result="effect1_foregroundBlur_15_15"/>
</filter>
<filter id="filter1_f_15_15" x="36.2725" y="36.2725" width="39.495" height="39.4949" filterUnits="userSpaceOnUse" color-interpolation-filters="sRGB">
<feFlood flood-opacity="0" result="BackgroundImageFix"/>
<feBlend mode="normal" in="SourceGraphic" in2="BackgroundImageFix" result="shape"/>
<feGaussianBlur stdDeviation="0.5" result="effect1_foregroundBlur_15_15"/>
</filter>
</defs>
</svg>
