<svg width="48" height="48" viewBox="0 0 48 48" fill="none" xmlns="http://www.w3.org/2000/svg">
<path d="M18 28C18 31.314 23.372 34 30 34C36.628 34 42 31.314 42 28M18 28C18 24.686 23.372 22 30 22C36.628 22 42 24.686 42 28M18 28V36C18 39.312 23.372 42 30 42C36.628 42 42 39.312 42 36V28M6 12C6 14.144 8.288 16.124 12 17.196C15.712 18.268 20.288 18.268 24 17.196C27.712 16.124 30 14.144 30 12C30 9.856 27.712 7.876 24 6.804C20.288 5.732 15.712 5.732 12 6.804C8.288 7.876 6 9.856 6 12ZM6 12V32C6 33.776 7.544 34.9 10 36M6 22C6 23.776 7.544 24.9 10 26" stroke="#04B2D9" stroke-width="2" stroke-linecap="round" stroke-linejoin="round"/>
<g filter="url(#filter0_f_1_271)">
<path d="M18 28C18 31.314 23.372 34 30 34C36.628 34 42 31.314 42 28M18 28C18 24.686 23.372 22 30 22C36.628 22 42 24.686 42 28M18 28V36C18 39.312 23.372 42 30 42C36.628 42 42 39.312 42 36V28M6 12C6 14.144 8.288 16.124 12 17.196C15.712 18.268 20.288 18.268 24 17.196C27.712 16.124 30 14.144 30 12C30 9.856 27.712 7.876 24 6.804C20.288 5.732 15.712 5.732 12 6.804C8.288 7.876 6 9.856 6 12ZM6 12V32C6 33.776 7.544 34.9 10 36M6 22C6 23.776 7.544 24.9 10 26" stroke="white" stroke-width="1.5" stroke-linecap="round" stroke-linejoin="round"/>
</g>
<defs>
<filter id="filter0_f_1_271" x="4.25" y="4.25" width="39.5" height="39.5" filterUnits="userSpaceOnUse" color-interpolation-filters="sRGB">
<feFlood flood-opacity="0" result="BackgroundImageFix"/>
<feBlend mode="normal" in="SourceGraphic" in2="BackgroundImageFix" result="shape"/>
<feGaussianBlur stdDeviation="0.5" result="effect1_foregroundBlur_1_271"/>
</filter>
</defs>
</svg>
