<svg width="40" height="40" viewBox="0 0 40 40" fill="none" xmlns="http://www.w3.org/2000/svg">
<path d="M14 20L18 24L26 16M6.00001 10.3999C6.00001 9.23299 6.46358 8.11384 7.28874 7.28868C8.1139 6.46352 9.23305 5.99995 10.4 5.99995H12.4C13.5618 5.99928 14.6762 5.53915 15.5 4.71995L16.9 3.31995C17.3089 2.90875 17.795 2.58243 18.3305 2.35976C18.8659 2.13709 19.4401 2.02246 20.02 2.02246C20.5999 2.02246 21.1741 2.13709 21.7095 2.35976C22.245 2.58243 22.7311 2.90875 23.14 3.31995L24.54 4.71995C25.364 5.53995 26.48 5.99995 27.64 5.99995H29.64C30.807 5.99995 31.9261 6.46352 32.7513 7.28868C33.5764 8.11384 34.04 9.23299 34.04 10.3999V12.3999C34.04 13.5599 34.5 14.6759 35.32 15.4999L36.72 16.8999C37.1312 17.3088 37.4575 17.795 37.6802 18.3304C37.9029 18.8659 38.0175 19.4401 38.0175 20.0199C38.0175 20.5998 37.9029 21.174 37.6802 21.7095C37.4575 22.2449 37.1312 22.7311 36.72 23.1399L35.32 24.5399C34.5008 25.3638 34.0407 26.4781 34.04 27.6399V29.6399C34.04 30.8069 33.5764 31.9261 32.7513 32.7512C31.9261 33.5764 30.807 34.0399 29.64 34.0399H27.64C26.4782 34.0406 25.3638 34.5007 24.54 35.3199L23.14 36.7199C22.7311 37.1311 22.245 37.4575 21.7095 37.6801C21.1741 37.9028 20.5999 38.0174 20.02 38.0174C19.4401 38.0174 18.8659 37.9028 18.3305 37.6801C17.795 37.4575 17.3089 37.1311 16.9 36.7199L15.5 35.3199C14.6762 34.5007 13.5618 34.0406 12.4 34.0399H10.4C9.23305 34.0399 8.1139 33.5764 7.28874 32.7512C6.46358 31.9261 6.00001 30.8069 6.00001 29.6399V27.6399C5.99934 26.4781 5.53921 25.3638 4.72001 24.5399L3.32001 23.1399C2.90881 22.7311 2.58249 22.2449 2.35982 21.7095C2.13715 21.174 2.02252 20.5998 2.02252 20.0199C2.02252 19.4401 2.13715 18.8659 2.35982 18.3304C2.58249 17.795 2.90881 17.3088 3.32001 16.8999L4.72001 15.4999C5.53921 14.6761 5.99934 13.5617 6.00001 12.3999V10.3999Z" stroke="#04B2D9" stroke-width="2" stroke-linecap="round" stroke-linejoin="round"/>
<g filter="url(#filter0_f_15_14)">
<path d="M14 20L18 24L26 16M6.00001 10.3999C6.00001 9.23299 6.46358 8.11384 7.28874 7.28868C8.1139 6.46352 9.23305 5.99995 10.4 5.99995H12.4C13.5618 5.99928 14.6762 5.53915 15.5 4.71995L16.9 3.31995C17.3089 2.90875 17.795 2.58243 18.3305 2.35976C18.8659 2.13709 19.4401 2.02246 20.02 2.02246C20.5999 2.02246 21.1741 2.13709 21.7095 2.35976C22.245 2.58243 22.7311 2.90875 23.14 3.31995L24.54 4.71995C25.364 5.53995 26.48 5.99995 27.64 5.99995H29.64C30.807 5.99995 31.9261 6.46352 32.7513 7.28868C33.5764 8.11384 34.04 9.23299 34.04 10.3999V12.3999C34.04 13.5599 34.5 14.6759 35.32 15.4999L36.72 16.8999C37.1312 17.3088 37.4575 17.795 37.6802 18.3304C37.9029 18.8659 38.0175 19.4401 38.0175 20.0199C38.0175 20.5998 37.9029 21.174 37.6802 21.7095C37.4575 22.2449 37.1312 22.7311 36.72 23.1399L35.32 24.5399C34.5008 25.3638 34.0407 26.4781 34.04 27.6399V29.6399C34.04 30.8069 33.5764 31.9261 32.7513 32.7512C31.9261 33.5764 30.807 34.0399 29.64 34.0399H27.64C26.4782 34.0406 25.3638 34.5007 24.54 35.3199L23.14 36.7199C22.7311 37.1311 22.245 37.4575 21.7095 37.6801C21.1741 37.9028 20.5999 38.0174 20.02 38.0174C19.4401 38.0174 18.8659 37.9028 18.3305 37.6801C17.795 37.4575 17.3089 37.1311 16.9 36.7199L15.5 35.3199C14.6762 34.5007 13.5618 34.0406 12.4 34.0399H10.4C9.23305 34.0399 8.1139 33.5764 7.28874 32.7512C6.46358 31.9261 6.00001 30.8069 6.00001 29.6399V27.6399C5.99934 26.4781 5.53921 25.3638 4.72001 24.5399L3.32001 23.1399C2.90881 22.7311 2.58249 22.2449 2.35982 21.7095C2.13715 21.174 2.02252 20.5998 2.02252 20.0199C2.02252 19.4401 2.13715 18.8659 2.35982 18.3304C2.58249 17.795 2.90881 17.3088 3.32001 16.8999L4.72001 15.4999C5.53921 14.6761 5.99934 13.5617 6.00001 12.3999V10.3999Z" stroke="white" stroke-width="1.5" stroke-linecap="round" stroke-linejoin="round"/>
</g>
<defs>
<filter id="filter0_f_15_14" x="0.272522" y="0.272461" width="39.495" height="39.4949" filterUnits="userSpaceOnUse" color-interpolation-filters="sRGB">
<feFlood flood-opacity="0" result="BackgroundImageFix"/>
<feBlend mode="normal" in="SourceGraphic" in2="BackgroundImageFix" result="shape"/>
<feGaussianBlur stdDeviation="0.5" result="effect1_foregroundBlur_15_14"/>
</filter>
</defs>
</svg>
