<svg width="48" height="48" viewBox="0 0 48 48" fill="none" xmlns="http://www.w3.org/2000/svg">
<path d="M12 40V34C12 33.4696 11.7893 32.9609 11.4142 32.5858C11.0391 32.2107 10.5304 32 10 32H8C7.46957 32 6.96086 32.2107 6.58579 32.5858C6.21071 32.9609 6 33.4696 6 34V40C6 40.5304 6.21071 41.0391 6.58579 41.4142C6.96086 41.7893 7.46957 42 8 42H10C10.5304 42 11.0391 41.7893 11.4142 41.4142C11.7893 41.0391 12 40.5304 12 40ZM12 40C12 40.5304 12.2107 41.0392 12.5858 41.4143C12.9609 41.7894 13.4696 42.0001 14 42.0001H21.512C21.9423 42.0001 22.3611 41.8614 22.7062 41.6045C23.0514 41.3476 23.3045 40.9863 23.428 40.5741L25.828 34.5741C26.008 33.9681 26.094 33.3141 25.716 32.8061C25.34 32.2981 24.632 32.0001 24 32.0001H20V27.0661C19.9998 26.5941 19.8477 26.1347 19.5664 25.7557C19.285 25.3767 18.8892 25.0983 18.4374 24.9616C17.9857 24.8248 17.5019 24.837 17.0576 24.9962C16.6133 25.1555 16.232 25.4535 15.97 25.8461L12 32.0001V40ZM28 6V14C28 14.5304 28.2107 15.0391 28.5858 15.4142C28.9609 15.7893 29.4696 16 30 16H38M28 6H14C12.9391 6 11.9217 6.42143 11.1716 7.17157C10.4214 7.92172 10 8.93913 10 10V24.2M28 6L38 16M38 16V38C38 39.0609 37.5786 40.0783 36.8284 40.8284C36.0783 41.5786 35.0609 42 34 42H29.4" stroke="#04B2D9" stroke-width="2" stroke-linecap="round" stroke-linejoin="round"/>
<g filter="url(#filter0_f_1_315)">
<path d="M12 40V34C12 33.4696 11.7893 32.9609 11.4142 32.5858C11.0391 32.2107 10.5304 32 10 32H8C7.46957 32 6.96086 32.2107 6.58579 32.5858C6.21071 32.9609 6 33.4696 6 34V40C6 40.5304 6.21071 41.0391 6.58579 41.4142C6.96086 41.7893 7.46957 42 8 42H10C10.5304 42 11.0391 41.7893 11.4142 41.4142C11.7893 41.0391 12 40.5304 12 40ZM12 40C12 40.5304 12.2107 41.0392 12.5858 41.4143C12.9609 41.7894 13.4696 42.0001 14 42.0001H21.512C21.9423 42.0001 22.3611 41.8614 22.7062 41.6045C23.0514 41.3476 23.3045 40.9863 23.428 40.5741L25.828 34.5741C26.008 33.9681 26.094 33.3141 25.716 32.8061C25.34 32.2981 24.632 32.0001 24 32.0001H20V27.0661C19.9998 26.5941 19.8477 26.1347 19.5664 25.7557C19.285 25.3767 18.8892 25.0983 18.4374 24.9616C17.9857 24.8248 17.5019 24.837 17.0576 24.9962C16.6133 25.1555 16.232 25.4535 15.97 25.8461L12 32.0001V40ZM28 6V14C28 14.5304 28.2107 15.0391 28.5858 15.4142C28.9609 15.7893 29.4696 16 30 16H38M28 6H14C12.9391 6 11.9217 6.42143 11.1716 7.17157C10.4214 7.92172 10 8.93913 10 10V24.2M28 6L38 16M38 16V38C38 39.0609 37.5786 40.0783 36.8284 40.8284C36.0783 41.5786 35.0609 42 34 42H29.4" stroke="white" stroke-width="1.5" stroke-linecap="round" stroke-linejoin="round"/>
</g>
<defs>
<filter id="filter0_f_1_315" x="4.25" y="4.25" width="35.5" height="39.5" filterUnits="userSpaceOnUse" color-interpolation-filters="sRGB">
<feFlood flood-opacity="0" result="BackgroundImageFix"/>
<feBlend mode="normal" in="SourceGraphic" in2="BackgroundImageFix" result="shape"/>
<feGaussianBlur stdDeviation="0.5" result="effect1_foregroundBlur_1_315"/>
</filter>
</defs>
</svg>
