<svg width="150" height="33" viewBox="0 0 150 33" fill="none" xmlns="http://www.w3.org/2000/svg">
<path fill-rule="evenodd" clip-rule="evenodd" d="M16.6259 18.2563C16.9398 18.5392 16.9649 19.023 16.682 19.3369L16.6227 19.4028C16.4788 19.5625 16.2743 19.6543 16.0593 19.6557C15.8444 19.6571 15.6387 19.568 15.4927 19.4103L15.4326 19.3453C15.1456 19.0351 15.1643 18.551 15.4745 18.264C15.636 18.1145 15.8448 18.048 16.0483 18.0624C16.252 18.045 16.4621 18.1087 16.6259 18.2563Z" fill="white"/>
<path fill-rule="evenodd" clip-rule="evenodd" d="M18.9341 17.6308C18.939 18.0533 18.6004 18.3998 18.1779 18.4047L17.5342 18.4122L16.6781 19.3584C16.3946 19.6717 15.9107 19.6959 15.5974 19.4124C15.284 19.1289 15.2598 18.6451 15.5433 18.3317L16.6237 17.1377C16.7666 16.9797 16.969 16.8884 17.1821 16.8859L18.1601 16.8746C18.5826 16.8697 18.9292 17.2082 18.9341 17.6308Z" fill="white"/>
<path fill-rule="evenodd" clip-rule="evenodd" d="M13.1738 17.6308C13.1787 17.2082 13.5252 16.8697 13.9477 16.8746L14.9257 16.8859C15.1388 16.8884 15.3412 16.9797 15.4842 17.1377L16.5645 18.3317C16.848 18.6451 16.8238 19.1289 16.5105 19.4124C16.1971 19.6959 15.7132 19.6717 15.4297 19.3584L14.5737 18.4122L13.93 18.4047C13.5074 18.3998 13.1688 18.0533 13.1738 17.6308Z" fill="white"/>
<path fill-rule="evenodd" clip-rule="evenodd" d="M15.734 12.3506C16.1179 12.1739 16.5723 12.3418 16.749 12.7256L18.8642 17.3197C19.0409 17.7036 18.873 18.158 18.4891 18.3347C18.1053 18.5115 17.6508 18.3436 17.4741 17.9597L15.359 13.3656C15.1823 12.9817 15.3502 12.5273 15.734 12.3506Z" fill="white"/>
<path fill-rule="evenodd" clip-rule="evenodd" d="M16.374 12.3506C16.7579 12.5273 16.9258 12.9817 16.749 13.3656L14.6339 17.9597C14.4572 18.3436 14.0028 18.5115 13.6189 18.3347C13.2351 18.158 13.0672 17.7036 13.2439 17.3197L15.359 12.7256C15.5357 12.3418 15.9902 12.1739 16.374 12.3506Z" fill="white"/>
<path fill-rule="evenodd" clip-rule="evenodd" d="M10.9187 4.96195C11.1994 4.93 11.4749 5.0553 11.6352 5.28788L16.6842 12.6112C16.9241 12.9591 16.8365 13.4356 16.4886 13.6754C16.1407 13.9153 15.6642 13.8277 15.4243 13.4798L11.1891 7.33679L4.60947 23.9595C4.45395 24.3524 4.00935 24.5449 3.61644 24.3894C3.22352 24.2338 3.03108 23.7892 3.1866 23.3963L10.2938 5.44058C10.3978 5.17792 10.6381 4.99391 10.9187 4.96195Z" fill="white"/>
<path fill-rule="evenodd" clip-rule="evenodd" d="M3.13281 23.6777C3.13281 23.2552 3.47538 22.9126 3.89795 22.9126H11.1758C11.5983 22.9126 11.9409 23.2552 11.9409 23.6777C11.9409 24.1003 11.5983 24.4429 11.1758 24.4429H3.89795C3.47538 24.4429 3.13281 24.1003 3.13281 23.6777Z" fill="white"/>
<path fill-rule="evenodd" clip-rule="evenodd" d="M20.1786 23.6777C20.1786 23.2552 20.5212 22.9126 20.9437 22.9126H28.2102C28.6328 22.9126 28.9753 23.2552 28.9753 23.6777C28.9753 24.1003 28.6328 24.4429 28.2102 24.4429H20.9437C20.5212 24.4429 20.1786 24.1003 20.1786 23.6777Z" fill="white"/>
<path fill-rule="evenodd" clip-rule="evenodd" d="M21.2015 4.96202C21.4821 4.99419 21.7222 5.17831 21.826 5.44097L28.9219 23.3967C29.0772 23.7897 28.8845 24.2342 28.4915 24.3895C28.0985 24.5448 27.654 24.3521 27.4987 23.9591L20.9294 7.33588L16.6835 13.4805C16.4433 13.8281 15.9667 13.9152 15.6191 13.675C15.2714 13.4347 15.1843 12.9582 15.4245 12.6105L20.4849 5.28722C20.6455 5.05487 20.921 4.92985 21.2015 4.96202Z" fill="white"/>
<path fill-rule="evenodd" clip-rule="evenodd" d="M17.8495 16.9441C18.2335 16.7677 18.6878 16.9359 18.8643 17.3199L21.6389 23.3582C21.8154 23.7422 21.6471 24.1965 21.2632 24.3729C20.8792 24.5494 20.4249 24.3811 20.2484 23.9971L17.4738 17.9588C17.2973 17.5748 17.4656 17.1205 17.8495 16.9441Z" fill="white"/>
<path fill-rule="evenodd" clip-rule="evenodd" d="M14.2575 16.9436C14.6418 17.1194 14.8107 17.5735 14.6349 17.9577L11.8716 23.9961C11.6958 24.3803 11.2417 24.5493 10.8575 24.3734C10.4732 24.1976 10.3043 23.7435 10.4801 23.3593L13.2434 17.321C13.4192 16.9367 13.8733 16.7678 14.2575 16.9436Z" fill="white"/>
<path fill-rule="evenodd" clip-rule="evenodd" d="M16.068 1.53028C12.2123 1.53028 8.51462 3.06193 5.78827 5.78827C3.06193 8.51462 1.53028 12.2123 1.53028 16.068C1.53028 19.9236 3.06193 23.6213 5.78827 26.3477C8.51462 29.074 12.2123 30.6057 16.068 30.6057C19.9236 30.6057 23.6213 29.074 26.3477 26.3477C29.074 23.6213 30.6057 19.9236 30.6057 16.068C30.6057 12.2123 29.074 8.51462 26.3477 5.78827C23.6213 3.06193 19.9236 1.53028 16.068 1.53028ZM4.7062 4.7062C7.71953 1.69287 11.8065 0 16.068 0C20.3295 0 24.4164 1.69287 27.4297 4.7062C30.4431 7.71953 32.1359 11.8065 32.1359 16.068C32.1359 20.3295 30.4431 24.4164 27.4297 27.4297C24.4164 30.4431 20.3295 32.1359 16.068 32.1359C11.8065 32.1359 7.71953 30.4431 4.7062 27.4297C1.69287 24.4164 0 20.3295 0 16.068C0 11.8065 1.69287 7.71953 4.7062 4.7062Z" fill="white"/>
<path d="M146.364 20.8376C145.354 20.8376 144.496 20.4887 143.789 19.7909C143.082 19.0931 142.728 18.2346 142.728 17.2154C142.728 16.1963 143.082 15.3378 143.789 14.64C144.496 13.9422 145.354 13.5933 146.364 13.5933C147.383 13.5933 148.242 13.9422 148.94 14.64C149.647 15.3378 150 16.1963 150 17.2154C150 18.2346 149.647 19.0931 148.94 19.7909C148.242 20.4887 147.383 20.8376 146.364 20.8376ZM144.835 18.7717C145.249 19.1849 145.758 19.3915 146.364 19.3915C146.97 19.3915 147.48 19.1849 147.893 18.7717C148.306 18.3586 148.513 17.8398 148.513 17.2154C148.513 16.5911 148.306 16.0723 147.893 15.6591C147.48 15.246 146.97 15.0394 146.364 15.0394C145.758 15.0394 145.249 15.246 144.835 15.6591C144.422 16.0723 144.216 16.5911 144.216 17.2154C144.216 17.8398 144.422 18.3586 144.835 18.7717Z" fill="white"/>
<path d="M138.336 13.5933C139.282 13.5933 140.09 13.9468 140.76 14.6537C141.431 15.3516 141.766 16.2055 141.766 17.2154C141.766 18.2346 141.431 19.0931 140.76 19.7909C140.09 20.4887 139.282 20.8376 138.336 20.8376C137.29 20.8376 136.486 20.452 135.926 19.6807V23.4131H134.439V13.7723H135.926V14.7639C136.486 13.9835 137.29 13.5933 138.336 13.5933ZM136.546 18.7993C136.959 19.2125 137.478 19.419 138.102 19.419C138.727 19.419 139.245 19.2125 139.659 18.7993C140.072 18.3769 140.278 17.849 140.278 17.2154C140.278 16.5819 140.072 16.0585 139.659 15.6454C139.245 15.223 138.727 15.0118 138.102 15.0118C137.478 15.0118 136.959 15.223 136.546 15.6454C136.133 16.0585 135.926 16.5819 135.926 17.2154C135.926 17.849 136.133 18.3769 136.546 18.7993Z" fill="white"/>
<path d="M133.432 13.7725V15.2048H131.187V20.6587H129.7V15.2048H127.441V13.7725H133.432Z" fill="white"/>
<path d="M121.595 17.849C121.705 18.3723 121.957 18.7763 122.352 19.061C122.747 19.3364 123.229 19.4741 123.798 19.4741C124.588 19.4741 125.18 19.1895 125.575 18.6202L126.801 19.3364C126.121 20.3372 125.116 20.8376 123.784 20.8376C122.664 20.8376 121.76 20.4979 121.071 19.8185C120.383 19.1298 120.038 18.2622 120.038 17.2154C120.038 16.1871 120.378 15.3286 121.057 14.64C121.737 13.9422 122.609 13.5933 123.674 13.5933C124.684 13.5933 125.511 13.9468 126.153 14.6537C126.805 15.3607 127.131 16.2192 127.131 17.2292C127.131 17.3853 127.113 17.5919 127.076 17.849H121.595ZM121.581 16.637H125.63C125.529 16.0769 125.295 15.6546 124.928 15.3699C124.569 15.0853 124.147 14.943 123.661 14.943C123.11 14.943 122.651 15.0945 122.283 15.3975C121.916 15.7005 121.682 16.1136 121.581 16.637Z" fill="white"/>
<path d="M118.706 13.7725V20.6587H117.26V16.1276L115.276 19.2815H115.097L113.128 16.1413V20.6587H111.682V13.7725H113.197L115.194 16.9539L117.191 13.7725H118.706Z" fill="white"/>
<path d="M106.01 17.1192C106.689 17.4314 107.029 17.9593 107.029 18.703C107.029 19.2815 106.832 19.7543 106.437 20.1216C106.051 20.4797 105.496 20.6587 104.77 20.6587H101.245V13.7725H104.495C105.202 13.7725 105.748 13.9515 106.134 14.3096C106.529 14.6585 106.726 15.113 106.726 15.6731C106.726 16.325 106.487 16.807 106.01 17.1192ZM104.385 15.0395H102.663V16.5683H104.385C104.991 16.5683 105.294 16.3112 105.294 15.797C105.294 15.292 104.991 15.0395 104.385 15.0395ZM104.633 19.3641C105.257 19.3641 105.569 19.0933 105.569 18.5515C105.569 18.3128 105.487 18.1292 105.321 18.0006C105.156 17.8629 104.926 17.794 104.633 17.794H102.663V19.3641H104.633Z" fill="white"/>
<path d="M94.5803 13.7723H96.0677V20.6586H94.5803V19.667C94.0202 20.4474 93.2168 20.8376 92.1701 20.8376C91.2244 20.8376 90.4164 20.4887 89.7461 19.7909C89.0759 19.0839 88.7407 18.2254 88.7407 17.2154C88.7407 16.1963 89.0759 15.3378 89.7461 14.64C90.4164 13.9422 91.2244 13.5933 92.1701 13.5933C93.2168 13.5933 94.0202 13.9789 94.5803 14.7502V13.7723ZM90.8479 18.7993C91.2611 19.2125 91.7799 19.419 92.4042 19.419C93.0286 19.419 93.5473 19.2125 93.9605 18.7993C94.3737 18.3769 94.5803 17.849 94.5803 17.2154C94.5803 16.5819 94.3737 16.0585 93.9605 15.6454C93.5473 15.223 93.0286 15.0118 92.4042 15.0118C91.7799 15.0118 91.2611 15.223 90.8479 15.6454C90.4347 16.0585 90.2282 16.5819 90.2282 17.2154C90.2282 17.849 90.4347 18.3769 90.8479 18.7993Z" fill="white"/>
<path d="M87.408 13.7725V20.6587H85.9619V16.1276L83.9787 19.2815H83.7996L81.8302 16.1413V20.6587H80.384V13.7725H81.899L83.896 16.9539L85.8931 13.7725H87.408Z" fill="white"/>
<path d="M77.1629 13.7723H78.6504V20.6586H77.1629V19.667C76.6028 20.4474 75.7994 20.8376 74.7527 20.8376C73.807 20.8376 72.999 20.4887 72.3288 19.7909C71.6585 19.0839 71.3234 18.2254 71.3234 17.2154C71.3234 16.1963 71.6585 15.3378 72.3288 14.64C72.999 13.9422 73.807 13.5933 74.7527 13.5933C75.7994 13.5933 76.6028 13.9789 77.1629 14.7502V13.7723ZM73.4306 18.7993C73.8437 19.2125 74.3625 19.419 74.9869 19.419C75.6112 19.419 76.13 19.2125 76.5432 18.7993C76.9563 18.3769 77.1629 17.849 77.1629 17.2154C77.1629 16.5819 76.9563 16.0585 76.5432 15.6454C76.13 15.223 75.6112 15.0118 74.9869 15.0118C74.3625 15.0118 73.8437 15.223 73.4306 15.6454C73.0174 16.0585 72.8108 16.5819 72.8108 17.2154C72.8108 17.849 73.0174 18.3769 73.4306 18.7993Z" fill="white"/>
<path d="M69.9757 13.7725V20.6587H68.4882V15.2048H66.1882V17.7665C66.1882 18.8591 65.9495 19.635 65.4721 20.0941C64.9946 20.5531 64.3152 20.7414 63.4337 20.6587V19.2677C63.8561 19.3412 64.1728 19.2539 64.384 19.006C64.5952 18.7581 64.7008 18.322 64.7008 17.6976V13.7725H69.9757Z" fill="white"/>
<path d="M63.1631 20.6587H61.3865L58.5631 17.4773V20.6587H57.0757V13.7725H58.5631V16.8162L61.235 13.7725H63.053L60.023 17.1467L63.1631 20.6587Z" fill="white"/>
<path d="M50.2302 17.849C50.3404 18.3723 50.5929 18.7763 50.9877 19.061C51.3826 19.3364 51.8646 19.4741 52.4339 19.4741C53.2235 19.4741 53.8157 19.1895 54.2105 18.6202L55.4363 19.3364C54.7568 20.3372 53.7514 20.8376 52.4201 20.8376C51.2999 20.8376 50.3955 20.4979 49.7069 19.8185C49.0183 19.1298 48.674 18.2622 48.674 17.2154C48.674 16.1871 49.0137 15.3286 49.6931 14.64C50.3726 13.9422 51.2448 13.5933 52.3099 13.5933C53.3199 13.5933 54.1462 13.9468 54.789 14.6537C55.4409 15.3607 55.7668 16.2192 55.7668 17.2292C55.7668 17.3853 55.7484 17.5919 55.7117 17.849H50.2302ZM50.2165 16.637H54.2656C54.1646 16.0769 53.9305 15.6546 53.5632 15.3699C53.2051 15.0853 52.7828 14.943 52.2961 14.943C51.7452 14.943 51.2861 15.0945 50.9189 15.3975C50.5516 15.7005 50.3175 16.1136 50.2165 16.637Z" fill="white"/>
<path d="M45.0699 11.0176C45.9789 11.0176 46.7364 11.3206 47.3424 11.9266C47.9576 12.5326 48.2651 13.2855 48.2651 14.1853C48.2651 15.0759 47.9576 15.8288 47.3424 16.444C46.7364 17.05 45.9789 17.3529 45.0699 17.3529H43.1004V20.6584H41.5166V11.0176H45.0699ZM45.0699 15.8655C45.5382 15.8655 45.9238 15.7094 46.2268 15.3972C46.5298 15.0759 46.6813 14.6719 46.6813 14.1853C46.6813 13.6986 46.5298 13.2992 46.2268 12.9871C45.9238 12.6657 45.5382 12.505 45.0699 12.505H43.1004V15.8655H45.0699Z" fill="white"/>
</svg>
