<svg width="48" height="48" viewBox="0 0 48 48" fill="none" xmlns="http://www.w3.org/2000/svg">
<path d="M12 35.2L8 33V28M8 19.9998V14.9998M8 14.9998L12 12.7998M8 14.9998L12 17.2M20 8.2L24 6L28 8.2M36 12.7998L40 14.9998M40 14.9998V19.9998M40 14.9998L36 17.2M40 28V33L36 35.24M28 39.7998L24 41.9998M24 41.9998L20 39.7998M24 41.9998V37M24 23.9998L28 21.7998M24 23.9998V29M24 23.9998L20 21.7598" stroke="#04B2D9" stroke-width="2" stroke-linecap="round" stroke-linejoin="round"/>
<g filter="url(#filter0_f_1_259)">
<path d="M12 35.2L8 33V28M8 19.9998V14.9998M8 14.9998L12 12.7998M8 14.9998L12 17.2M20 8.2L24 6L28 8.2M36 12.7998L40 14.9998M40 14.9998V19.9998M40 14.9998L36 17.2M40 28V33L36 35.24M28 39.7998L24 41.9998M24 41.9998L20 39.7998M24 41.9998V37M24 23.9998L28 21.7998M24 23.9998V29M24 23.9998L20 21.7598" stroke="white" stroke-width="1.5" stroke-linecap="round" stroke-linejoin="round"/>
</g>
<defs>
<filter id="filter0_f_1_259" x="6.25" y="4.25" width="35.5" height="39.4998" filterUnits="userSpaceOnUse" color-interpolation-filters="sRGB">
<feFlood flood-opacity="0" result="BackgroundImageFix"/>
<feBlend mode="normal" in="SourceGraphic" in2="BackgroundImageFix" result="shape"/>
<feGaussianBlur stdDeviation="0.5" result="effect1_foregroundBlur_1_259"/>
</filter>
</defs>
</svg>
