<svg width="48" height="48" viewBox="0 0 48 48" fill="none" xmlns="http://www.w3.org/2000/svg">
<path d="M14 24V18H20M34 24V30H28M6 14C6 12.9391 6.42143 11.9217 7.17157 11.1716C7.92172 10.4214 8.93913 10 10 10H38C39.0609 10 40.0783 10.4214 40.8284 11.1716C41.5786 11.9217 42 12.9391 42 14V34C42 35.0609 41.5786 36.0783 40.8284 36.8284C40.0783 37.5786 39.0609 38 38 38H10C8.93913 38 7.92172 37.5786 7.17157 36.8284C6.42143 36.0783 6 35.0609 6 34V14Z" stroke="#04B2D9" stroke-width="2" stroke-linecap="round" stroke-linejoin="round"/>
<g filter="url(#filter0_f_1_327)">
<path d="M14 24V18H20M34 24V30H28M6 14C6 12.9391 6.42143 11.9217 7.17157 11.1716C7.92172 10.4214 8.93913 10 10 10H38C39.0609 10 40.0783 10.4214 40.8284 11.1716C41.5786 11.9217 42 12.9391 42 14V34C42 35.0609 41.5786 36.0783 40.8284 36.8284C40.0783 37.5786 39.0609 38 38 38H10C8.93913 38 7.92172 37.5786 7.17157 36.8284C6.42143 36.0783 6 35.0609 6 34V14Z" stroke="white" stroke-width="1.5" stroke-linecap="round" stroke-linejoin="round"/>
</g>
<defs>
<filter id="filter0_f_1_327" x="4.25" y="8.25" width="39.5" height="31.5" filterUnits="userSpaceOnUse" color-interpolation-filters="sRGB">
<feFlood flood-opacity="0" result="BackgroundImageFix"/>
<feBlend mode="normal" in="SourceGraphic" in2="BackgroundImageFix" result="shape"/>
<feGaussianBlur stdDeviation="0.5" result="effect1_foregroundBlur_1_327"/>
</filter>
</defs>
</svg>
