<svg width="48" height="48" viewBox="0 0 48 48" fill="none" xmlns="http://www.w3.org/2000/svg">
<path d="M42 24V30M42 30C42 30.5304 41.7893 31.0391 41.4142 31.4142C41.0391 31.7893 40.5304 32 40 32H8C7.46957 32 6.96086 31.7893 6.58579 31.4142C6.21071 31.0391 6 30.5304 6 30M42 30V10C42 9.46957 41.7893 8.96086 41.4142 8.58579C41.0391 8.21071 40.5304 8 40 8H22M6 30V10C6 9.46957 6.21071 8.96086 6.58579 8.58579C6.96086 8.21071 7.46957 8 8 8H26M6 30V24M14 40H34M18 32V40M30 32V40" stroke="#04B2D9" stroke-width="2" stroke-linecap="round" stroke-linejoin="round"/>
<g filter="url(#filter0_f_1_237)">
<path d="M42 24V30M42 30C42 30.5304 41.7893 31.0391 41.4142 31.4142C41.0391 31.7893 40.5304 32 40 32H8C7.46957 32 6.96086 31.7893 6.58579 31.4142C6.21071 31.0391 6 30.5304 6 30M42 30V10C42 9.46957 41.7893 8.96086 41.4142 8.58579C41.0391 8.21071 40.5304 8 40 8H22M6 30V10C6 9.46957 6.21071 8.96086 6.58579 8.58579C6.96086 8.21071 7.46957 8 8 8H26M6 30V24M14 40H34M18 32V40M30 32V40" stroke="white" stroke-width="1.5" stroke-linecap="round" stroke-linejoin="round"/>
</g>
<defs>
<filter id="filter0_f_1_237" x="4.25" y="6.25" width="39.5" height="35.5" filterUnits="userSpaceOnUse" color-interpolation-filters="sRGB">
<feFlood flood-opacity="0" result="BackgroundImageFix"/>
<feBlend mode="normal" in="SourceGraphic" in2="BackgroundImageFix" result="shape"/>
<feGaussianBlur stdDeviation="0.5" result="effect1_foregroundBlur_1_237"/>
</filter>
</defs>
</svg>
