<svg width="48" height="48" viewBox="0 0 48 48" fill="none" xmlns="http://www.w3.org/2000/svg">
<path d="M6 42H42M18 16H20M18 24H20M18 32H20M28 16H30M28 24H30M28 32H30M10 42V10C10 8.93913 10.4214 7.92172 11.1716 7.17157C11.9217 6.42143 12.9391 6 14 6H34C35.0609 6 36.0783 6.42143 36.8284 7.17157C37.5786 7.92172 38 8.93913 38 10V42" stroke="#04B2D9" stroke-width="2" stroke-linecap="round" stroke-linejoin="round"/>
<g filter="url(#filter0_f_1_225)">
<path d="M6 42H42M18 16H20M18 24H20M18 32H20M28 16H30M28 24H30M28 32H30M10 42V10C10 8.93913 10.4214 7.92172 11.1716 7.17157C11.9217 6.42143 12.9391 6 14 6H34C35.0609 6 36.0783 6.42143 36.8284 7.17157C37.5786 7.92172 38 8.93913 38 10V42" stroke="white" stroke-width="1.5" stroke-linecap="round" stroke-linejoin="round"/>
</g>
<defs>
<filter id="filter0_f_1_225" x="4.25" y="4.25" width="39.5" height="39.5" filterUnits="userSpaceOnUse" color-interpolation-filters="sRGB">
<feFlood flood-opacity="0" result="BackgroundImageFix"/>
<feBlend mode="normal" in="SourceGraphic" in2="BackgroundImageFix" result="shape"/>
<feGaussianBlur stdDeviation="0.5" result="effect1_foregroundBlur_1_225"/>
</filter>
</defs>
</svg>
